<mxfile host="Electron" agent="Mozilla/5.0 (Windows NT 10.0; Win64; x64) AppleWebKit/537.36 (KHTML, like Gecko) draw.io/26.2.2 Chrome/134.0.6998.178 Electron/35.1.2 Safari/537.36" version="26.2.2">
  <diagram name="Pagina-1" id="xXhUMbjC-SiDMhuzIc-h">
    <mxGraphModel dx="680" dy="400" grid="1" gridSize="10" guides="1" tooltips="1" connect="1" arrows="1" fold="1" page="1" pageScale="1" pageWidth="827" pageHeight="1169" math="1" shadow="0">
      <root>
        <mxCell id="0" />
        <mxCell id="1" parent="0" />
        <mxCell id="L-pvnTVNUa7C_QVLdBLN-17" value="" style="endArrow=none;html=1;rounded=0;fontColor=#3399FF;strokeColor=#3399FF;" parent="1" edge="1">
          <mxGeometry width="50" height="50" relative="1" as="geometry">
            <mxPoint x="160" y="520" as="sourcePoint" />
            <mxPoint x="480" y="200" as="targetPoint" />
          </mxGeometry>
        </mxCell>
        <mxCell id="L-pvnTVNUa7C_QVLdBLN-6" value="$$x^0$$" style="text;html=1;align=center;verticalAlign=middle;resizable=0;points=[];autosize=1;strokeColor=none;fillColor=none;" parent="1" vertex="1">
          <mxGeometry x="310" y="150" width="70" height="30" as="geometry" />
        </mxCell>
        <mxCell id="L-pvnTVNUa7C_QVLdBLN-7" value="$$x^2$$" style="text;html=1;align=center;verticalAlign=middle;resizable=0;points=[];autosize=1;strokeColor=none;fillColor=none;" parent="1" vertex="1">
          <mxGeometry x="530" y="330" width="70" height="30" as="geometry" />
        </mxCell>
        <mxCell id="L-pvnTVNUa7C_QVLdBLN-8" value="$$x^1$$" style="text;html=1;align=center;verticalAlign=middle;resizable=0;points=[];autosize=1;strokeColor=none;fillColor=none;" parent="1" vertex="1">
          <mxGeometry x="110" y="410" width="70" height="30" as="geometry" />
        </mxCell>
        <mxCell id="L-pvnTVNUa7C_QVLdBLN-18" value="" style="endArrow=none;html=1;rounded=0;fontColor=#3399FF;strokeColor=#3399FF;" parent="1" edge="1">
          <mxGeometry width="50" height="50" relative="1" as="geometry">
            <mxPoint x="480" y="520" as="sourcePoint" />
            <mxPoint x="160" y="200" as="targetPoint" />
          </mxGeometry>
        </mxCell>
        <mxCell id="L-pvnTVNUa7C_QVLdBLN-20" value="" style="ellipse;whiteSpace=wrap;html=1;strokeColor=#3399FF;fillColor=none;" parent="1" vertex="1">
          <mxGeometry x="200" y="458" width="240" height="50" as="geometry" />
        </mxCell>
        <mxCell id="L-pvnTVNUa7C_QVLdBLN-21" value="" style="ellipse;whiteSpace=wrap;html=1;strokeColor=#3399FF;fillColor=none;" parent="1" vertex="1">
          <mxGeometry x="200" y="211" width="240" height="50" as="geometry" />
        </mxCell>
        <mxCell id="L-pvnTVNUa7C_QVLdBLN-23" value="$$\text{light cone}$$" style="text;html=1;align=center;verticalAlign=middle;resizable=0;points=[];autosize=1;fontColor=#3399FF;" parent="1" vertex="1">
          <mxGeometry x="430" y="440" width="130" height="30" as="geometry" />
        </mxCell>
        <mxCell id="L-pvnTVNUa7C_QVLdBLN-3" value="" style="endArrow=classic;html=1;rounded=0;" parent="1" edge="1">
          <mxGeometry width="50" height="50" relative="1" as="geometry">
            <mxPoint x="320" y="360" as="sourcePoint" />
            <mxPoint x="560" y="360" as="targetPoint" />
          </mxGeometry>
        </mxCell>
        <mxCell id="L-pvnTVNUa7C_QVLdBLN-4" value="" style="endArrow=classic;html=1;rounded=0;" parent="1" edge="1">
          <mxGeometry width="50" height="50" relative="1" as="geometry">
            <mxPoint x="320" y="360" as="sourcePoint" />
            <mxPoint x="320" y="160" as="targetPoint" />
          </mxGeometry>
        </mxCell>
        <mxCell id="L-pvnTVNUa7C_QVLdBLN-5" value="" style="endArrow=classic;html=1;rounded=0;" parent="1" edge="1">
          <mxGeometry width="50" height="50" relative="1" as="geometry">
            <mxPoint x="320" y="360" as="sourcePoint" />
            <mxPoint x="160" y="440" as="targetPoint" />
          </mxGeometry>
        </mxCell>
        <mxCell id="L-pvnTVNUa7C_QVLdBLN-25" value="" style="endArrow=none;html=1;rounded=0;curved=1;" parent="1" edge="1">
          <mxGeometry width="50" height="50" relative="1" as="geometry">
            <mxPoint x="360" y="360" as="sourcePoint" />
            <mxPoint x="350" y="330" as="targetPoint" />
            <Array as="points">
              <mxPoint x="360" y="340" />
            </Array>
          </mxGeometry>
        </mxCell>
        <mxCell id="L-pvnTVNUa7C_QVLdBLN-26" value="$$45^\circ$$" style="text;html=1;align=center;verticalAlign=middle;resizable=0;points=[];autosize=1;strokeColor=none;fillColor=none;" parent="1" vertex="1">
          <mxGeometry x="336" y="327" width="90" height="30" as="geometry" />
        </mxCell>
        <mxCell id="m_D-Jd6tyb8xunz6EEDI-1" value="" style="endArrow=none;html=1;rounded=0;curved=1;strokeColor=#009900;" edge="1" parent="1">
          <mxGeometry width="50" height="50" relative="1" as="geometry">
            <mxPoint x="279" y="470" as="sourcePoint" />
            <mxPoint x="359" y="290" as="targetPoint" />
            <Array as="points">
              <mxPoint x="319" y="440" />
              <mxPoint x="319" y="360" />
              <mxPoint x="329" y="320" />
            </Array>
          </mxGeometry>
        </mxCell>
        <mxCell id="m_D-Jd6tyb8xunz6EEDI-2" value="$$\text{time flow}$$" style="text;html=1;align=center;verticalAlign=middle;resizable=0;points=[];autosize=1;strokeColor=none;fillColor=none;" vertex="1" parent="1">
          <mxGeometry x="560" y="240" width="130" height="30" as="geometry" />
        </mxCell>
        <mxCell id="m_D-Jd6tyb8xunz6EEDI-3" value="" style="endArrow=classic;html=1;rounded=0;" edge="1" parent="1">
          <mxGeometry width="50" height="50" relative="1" as="geometry">
            <mxPoint x="580" y="310" as="sourcePoint" />
            <mxPoint x="580" y="200" as="targetPoint" />
          </mxGeometry>
        </mxCell>
      </root>
    </mxGraphModel>
  </diagram>
</mxfile>
